<svg xmlns="http://www.w3.org/2000/svg" width="432" height="528"><style>circle,line,path,polygon,rect{stroke:#000;stroke-width:2;stroke-opacity:1;fill-opacity:1;stroke-linecap:round;stroke-linejoin:miter}text{font-family:Iosevka Fixed,monospace;font-size:14px}.filled{fill:#000}.bg_filled,.nofill{fill:#fff}.r{ fill: #a9cce3; }</style><defs><marker id="arrow" viewBox="-2 -2 8 8" refX="4" refY="2" markerWidth="7" markerHeight="7" orient="auto-start-reverse"><path d="M0 0v4l4-2-4-2z"/></marker><marker id="diamond" viewBox="-2 -2 8 8" refX="4" refY="2" markerWidth="7" markerHeight="7" orient="auto-start-reverse"><path d="M0 2l2-2 2 2-2 2-2-2z"/></marker><marker id="circle" viewBox="0 0 8 8" refX="4" refY="4" markerWidth="7" markerHeight="7" orient="auto-start-reverse"><circle cx="4" cy="4" r="2" class="filled"/></marker><marker id="open_circle" viewBox="0 0 8 8" refX="4" refY="4" markerWidth="7" markerHeight="7" orient="auto-start-reverse"><circle cx="4" cy="4" r="2" class="bg_filled"/></marker><marker id="big_open_circle" viewBox="0 0 8 8" refX="4" refY="4" markerWidth="7" markerHeight="7" orient="auto-start-reverse"><circle cx="4" cy="4" r="3" class="bg_filled"/></marker></defs><path class="backdrop" fill="#fff" d="M0 0h432v528H0z"/><rect x="4" y="216" width="56" height="32" class="solid nofill r" rx="4"/><text x="50" y="236">5</text><rect x="4" y="472" width="56" height="32" class="solid nofill r" rx="4"/><text x="50" y="492">N</text><text x="138" y="28">BEFORE</text><text x="194" y="28">`Set</text><path d="M232 16a16 16 0 000 16" class="nofill"/><text x="242" y="28">N</text><path d="M256 16a16 16 0 010 16" class="nofill"/><text x="266" y="28">`</text><path class="solid" d="M64 38h256M64 42h256"/><text x="18" y="124">2</text><text x="50" y="124">0</text><text x="82" y="124">0</text><text x="114" y="124">0</text><text x="146" y="124">0</text><text x="178" y="124">0</text><text x="210" y="124">0</text><text x="242" y="124">0</text><text x="274" y="124">0</text><text x="306" y="124">0</text><text x="338" y="124">0</text><text x="370" y="124">0</text><text x="10" y="156">#0</text><text x="42" y="156">#1</text><text x="74" y="156">#2</text><text x="106" y="156">#3</text><text x="138" y="156">#4</text><text x="170" y="156">#5</text><text x="202" y="156">#6</text><text x="234" y="156">#7</text><text x="266" y="156">#8</text><text x="298" y="156">#9</text><text x="330" y="156">#10</text><text x="362" y="156">#11</text><text x="402" y="124">...</text><text x="402" y="156">...</text><text x="2" y="204">register</text><text x="130" y="204">deref</text><text x="178" y="204">stack</text><text x="138" y="284">AFTER</text><text x="186" y="284">`Set</text><path d="M224 272a16 16 0 000 16" class="nofill"/><text x="234" y="284">N</text><path d="M248 272a16 16 0 010 16" class="nofill"/><text x="258" y="284">`</text><path class="solid" d="M64 294h256M64 298h256"/><text x="18" y="380">2</text><text x="50" y="380">0</text><text x="82" y="380">0</text><text x="114" y="380">0</text><text x="146" y="380">0</text><text x="178" y="380">0</text><text x="210" y="380">0</text><text x="242" y="380">0</text><text x="274" y="380">0</text><text x="306" y="380">0</text><text x="338" y="380">0</text><text x="370" y="380">0</text><text x="10" y="412">#0</text><text x="42" y="412">#1</text><text x="74" y="412">#2</text><text x="106" y="412">#3</text><text x="138" y="412">#4</text><text x="170" y="412">#5</text><text x="202" y="412">#6</text><text x="234" y="412">#7</text><text x="266" y="412">#8</text><text x="298" y="412">#9</text><text x="330" y="412">#10</text><text x="362" y="412">#11</text><text x="402" y="380">...</text><text x="402" y="412">...</text><text x="2" y="460">register</text><text x="130" y="460">deref</text><text x="178" y="460">stack</text><path class="solid" d="M20 64v20"/><path class="filled" d="M16 84h8l-4 12z"/><path class="solid" d="M4 104h384M4 104v32M36 104v32M68 104v32M100 104v32M132 104v32M164 104v32M196 104v32M228 104v32M260 104v32M292 104v32M324 104v32M356 104v32M388 104v32M4 136h384"/><g><path d="M136 216a4 4 0 00-4 4" class="nofill"/><path class="solid" d="M132 220v24M136 216h8"/><path d="M132 244a4 4 0 004 4" class="nofill"/><path class="solid" d="M136 248h8"/></g><g><path class="solid" d="M20 320v20"/><path class="filled" d="M16 340h8l-4 12z"/></g><g><path class="solid" d="M4 360h384M4 360v32M36 360v32M68 360v32M100 360v32M132 360v32M164 360v32M196 360v32M228 360v32M260 360v32M292 360v32M324 360v32M356 360v32M388 360v32M4 392h384"/></g><g><path d="M136 472a4 4 0 00-4 4" class="nofill"/><path class="solid" d="M132 476v24M136 472h8"/><path d="M132 500a4 4 0 004 4" class="nofill"/><path class="solid" d="M136 504h8"/></g></svg>