<svg xmlns="http://www.w3.org/2000/svg" width="448" height="528" class="svgbob"><style>.svgbob circle,.svgbob line,.svgbob path,.svgbob polygon,.svgbob rect{stroke:#000;stroke-width:2;stroke-opacity:1;fill-opacity:1;stroke-linecap:round;stroke-linejoin:miter}.svgbob text{white-space:pre;fill:#000;font-family:Iosevka Fixed,monospace;font-size:14px}.svgbob .filled{fill:#000}.svgbob .bg_filled,.svgbob .nofill{fill:#fff}.r{ fill: #a9cce3; }</style><defs><marker id="arrow" viewBox="-2 -2 8 8" refX="4" refY="2" markerWidth="7" markerHeight="7" orient="auto-start-reverse"><path d="M0 0v4l4-2-4-2z"/></marker><marker id="diamond" viewBox="-2 -2 8 8" refX="4" refY="2" markerWidth="7" markerHeight="7" orient="auto-start-reverse"><path d="M0 2l2-2 2 2-2 2-2-2z"/></marker><marker id="circle" viewBox="0 0 8 8" refX="4" refY="4" markerWidth="7" markerHeight="7" orient="auto-start-reverse"><circle cx="4" cy="4" r="2" class="filled"/></marker><marker id="open_circle" viewBox="0 0 8 8" refX="4" refY="4" markerWidth="7" markerHeight="7" orient="auto-start-reverse"><circle cx="4" cy="4" r="2" class="bg_filled"/></marker><marker id="big_open_circle" viewBox="0 0 8 8" refX="4" refY="4" markerWidth="7" markerHeight="7" orient="auto-start-reverse"><circle cx="4" cy="4" r="3" class="bg_filled"/></marker></defs><path class="backdrop" fill="#fff" d="M0 0h448v528H0z"/><rect x="4" y="216" width="80" height="32" class="solid r" rx="4"/><text x="42" y="236">#0xc</text><rect x="4" y="472" width="140" height="32" class="solid r" rx="4"/><text x="42" y="492">#0xfffffffb</text><text x="146" y="28">BEFORE</text><text x="202" y="28">`BitwiseNand`</text><path class="solid" d="M88 38h256M88 42h256M28 64v20"/><path class="filled" d="M24 84h8l-4 12z"/><text x="18" y="124">0x7</text><text x="66" y="124">0</text><text x="98" y="124">0</text><text x="130" y="124">0</text><text x="162" y="124">0</text><text x="194" y="124">0</text><text x="226" y="124">0</text><text x="258" y="124">0</text><text x="290" y="124">0</text><text x="322" y="124">0</text><text x="354" y="124">0</text><text x="386" y="124">0</text><text x="18" y="156">#0</text><text x="58" y="156">#1</text><text x="90" y="156">#2</text><text x="122" y="156">#3</text><text x="154" y="156">#4</text><text x="186" y="156">#5</text><text x="218" y="156">#6</text><text x="250" y="156">#7</text><text x="282" y="156">#8</text><text x="314" y="156">#9</text><text x="346" y="156">#10</text><text x="378" y="156">#11</text><text x="418" y="124">...</text><text x="418" y="156">...</text><text x="2" y="204">register</text><text x="130" y="204">deref</text><text x="178" y="204">stack</text><text x="154" y="284">AFTER</text><text x="202" y="284">`BitwiseNand`</text><path class="solid" d="M88 294h256M88 298h256M28 320v20"/><path class="filled" d="M24 340h8l-4 12z"/><text x="18" y="380">0x7</text><text x="66" y="380">0</text><text x="98" y="380">0</text><text x="130" y="380">0</text><text x="162" y="380">0</text><text x="194" y="380">0</text><text x="226" y="380">0</text><text x="258" y="380">0</text><text x="290" y="380">0</text><text x="322" y="380">0</text><text x="354" y="380">0</text><text x="386" y="380">0</text><text x="18" y="412">#0</text><text x="58" y="412">#1</text><text x="90" y="412">#2</text><text x="122" y="412">#3</text><text x="154" y="412">#4</text><text x="186" y="412">#5</text><text x="218" y="412">#6</text><text x="250" y="412">#7</text><text x="282" y="412">#8</text><text x="314" y="412">#9</text><text x="346" y="412">#10</text><text x="378" y="412">#11</text><text x="418" y="380">...</text><text x="418" y="412">...</text><text x="2" y="460">register</text><text x="194" y="460">deref</text><text x="242" y="460">stack</text><path class="solid" d="M4 104h400M4 104v32M52 104v32M84 104v32M116 104v32M148 104v32M180 104v32M212 104v32M244 104v32M276 104v32M308 104v32M340 104v32M372 104v32M404 104v32M4 136h400"/><g><path d="M152 216a4 4 0 00-4 4" class="nofill"/><path class="solid" d="M148 220v24M152 216h8"/><path d="M148 244a4 4 0 004 4" class="nofill"/><path class="solid" d="M152 248h8"/></g><g><path class="solid" d="M4 360h400M4 360v32M52 360v32M84 360v32M116 360v32M148 360v32M180 360v32M212 360v32M244 360v32M276 360v32M308 360v32M340 360v32M372 360v32M404 360v32M4 392h400"/></g><g><path d="M208 472a4 4 0 00-4 4" class="nofill"/><path class="solid" d="M204 476v24M208 472h8"/><path d="M204 500a4 4 0 004 4" class="nofill"/><path class="solid" d="M208 504h8"/></g></svg>